<svg width="144" height="29" viewBox="0 0 144 29" fill="none" xmlns="http://www.w3.org/2000/svg">
<path d="M26.6108 0.919999L16.8908 19.72V29H10.0508V19.72L0.330781 0.919999H8.09078L13.5308 12.68L18.9308 0.919999H26.6108ZM36.2067 0.919999V29H29.3667V0.919999H36.2067ZM66.2836 29H59.4436L48.0036 11.68V29H41.1636V0.919999H48.0036L59.4436 18.32V0.919999H66.2836V29Z" fill="black"/>
<path d="M103.798 0.919999L94.0783 19.72V29H87.2383V19.72L77.5183 0.919999H85.2783L90.7183 12.68L96.1183 0.919999H103.798ZM113.394 0.919999V29H106.554V0.919999H113.394ZM143.471 29H136.631L125.191 11.68V29H118.351V0.919999H125.191L136.631 18.32V0.919999H143.471V29Z" fill="#49B9A8"/>
</svg>
