<svg width="106" height="105" viewBox="0 0 106 105" fill="none" xmlns="http://www.w3.org/2000/svg">
<rect opacity="0.7" x="0.349365" y="0.668213" width="105" height="103.557" rx="40" fill="#5EFFE6"/>
<path d="M63.9 57.8715C64.1 56.2442 64.25 54.6168 64.25 52.9402C64.25 51.2635 64.1 49.6362 63.9 48.0089H72.35C72.75 49.5869 73 51.2389 73 52.9402C73 54.6415 72.75 56.2935 72.35 57.8715H63.9ZM59.475 71.5805C60.975 68.8436 62.125 65.8848 62.925 62.8028H70.3C67.8779 66.9162 64.0353 70.0321 59.475 71.5805ZM58.85 57.8715H47.15C46.9 56.2442 46.75 54.6168 46.75 52.9402C46.75 51.2635 46.9 49.6116 47.15 48.0089H58.85C59.075 49.6116 59.25 51.2635 59.25 52.9402C59.25 54.6168 59.075 56.2442 58.85 57.8715ZM53 72.5668C50.925 69.608 49.25 66.3287 48.225 62.8028H57.775C56.75 66.3287 55.075 69.608 53 72.5668ZM43 43.0776H35.7C38.0971 38.9531 41.937 35.8322 46.5 34.2999C45 37.0367 43.875 39.9955 43 43.0776ZM35.7 62.8028H43C43.875 65.8848 45 68.8436 46.5 71.5805C41.9466 70.0312 38.1121 66.9148 35.7 62.8028ZM33.65 57.8715C33.25 56.2935 33 54.6415 33 52.9402C33 51.2389 33.25 49.5869 33.65 48.0089H42.1C41.9 49.6362 41.75 51.2635 41.75 52.9402C41.75 54.6168 41.9 56.2442 42.1 57.8715H33.65ZM53 33.289C55.075 36.2477 56.75 39.5517 57.775 43.0776H48.225C49.25 39.5517 50.925 36.2477 53 33.289ZM70.3 43.0776H62.925C62.1426 40.0238 60.9839 37.0759 59.475 34.2999C64.075 35.8532 67.9 38.9846 70.3 43.0776ZM53 28.2837C39.175 28.2837 28 39.3791 28 52.9402C28 59.4795 30.6339 65.751 35.3223 70.375C37.6438 72.6645 40.3998 74.4807 43.4329 75.7198C46.4661 76.9589 49.717 77.5967 53 77.5967C59.6304 77.5967 65.9893 74.9989 70.6777 70.375C75.3661 65.751 78 59.4795 78 52.9402C78 49.7022 77.3534 46.496 76.097 43.5046C74.8406 40.5131 72.9991 37.795 70.6777 35.5054C68.3562 33.2158 65.6002 31.3997 62.5671 30.1606C59.5339 28.9215 56.283 28.2837 53 28.2837Z" fill="white"/>
</svg>
