<svg fill="none" height="20" viewBox="0 0 20 20" width="20" xmlns="http://www.w3.org/2000/svg"><path d="m17 8.33333-6.6667 4.16667-6.66663-4.16667v-1.66666l6.66663 4.16663 6.6667-4.16663zm0-3.33333h-13.33333c-.925 0-1.66667.74167-1.66667 1.66667v10.00003c0 .442.17559.8659.48816 1.1785.31256.3125.73648.4881 1.17851.4881h13.33333c.442 0 .866-.1756 1.1785-.4881.3126-.3126.4882-.7365.4882-1.1785v-10.00003c0-.44203-.1756-.86595-.4882-1.17851-.3125-.31257-.7365-.48816-1.1785-.48816z" fill="#fff"/></svg>