<svg width="20" height="20" viewBox="0 0 20 20" fill="none" xmlns="http://www.w3.org/2000/svg">
<path d="M17 8.33333L10.3333 12.5L3.66667 8.33333V6.66667L10.3333 10.8333L17 6.66667V8.33333ZM17 5H3.66667C2.74167 5 2 5.74167 2 6.66667V16.6667C2 17.1087 2.17559 17.5326 2.48816 17.8452C2.80072 18.1577 3.22464 18.3333 3.66667 18.3333H17C17.442 18.3333 17.866 18.1577 18.1785 17.8452C18.4911 17.5326 18.6667 17.1087 18.6667 16.6667V6.66667C18.6667 6.22464 18.4911 5.80072 18.1785 5.48816C17.866 5.17559 17.442 5 17 5Z" fill="white"/>
</svg>
