<svg width="106" height="104" viewBox="0 0 106 104" fill="none" xmlns="http://www.w3.org/2000/svg">
<rect opacity="0.7" x="0.349365" y="0.163818" width="105" height="103.557" rx="40" fill="#5EFFE6"/>
<path d="M74.4286 27.7791H31.5714C30.6242 27.7791 29.7158 28.1502 29.046 28.8107C28.3763 29.4713 28 30.3672 28 31.3014V73.5698C28 74.504 28.3763 75.3999 29.046 76.0605C29.7158 76.721 30.6242 77.0921 31.5714 77.0921H74.4286C75.3758 77.0921 76.2842 76.721 76.954 76.0605C77.6237 75.3999 78 74.504 78 73.5698V31.3014C78 30.3672 77.6237 29.4713 76.954 28.8107C76.2842 28.1502 75.3758 27.7791 74.4286 27.7791ZM56.5714 33.0626H60.1429V38.3461H56.5714V33.0626ZM45.8571 33.0626H49.4286V38.3461H45.8571V33.0626ZM38.7143 71.8086H35.1429V66.525H38.7143V71.8086ZM38.7143 38.3461H35.1429V33.0626H38.7143V38.3461ZM49.4286 71.8086H45.8571V66.525H49.4286V71.8086ZM60.1429 71.8086H56.5714V66.525H60.1429V71.8086ZM65.7857 53.915L48.3393 61.5937C48.0679 61.7071 47.7723 61.7525 47.4788 61.7257C47.1853 61.699 46.903 61.6011 46.6573 61.4407C46.4115 61.2802 46.2098 61.0623 46.0702 60.8063C45.9306 60.5503 45.8574 60.2641 45.8571 59.9734V44.6336C45.8578 44.3398 45.9329 44.0509 46.0756 43.7931C46.2184 43.5353 46.4243 43.3168 46.6745 43.1575C46.9248 42.9982 47.2115 42.9032 47.5085 42.881C47.8055 42.8589 48.1033 42.9104 48.375 43.0309L65.7857 50.6744C66.1078 50.8098 66.3825 51.0355 66.5756 51.3236C66.7686 51.6117 66.8716 51.9494 66.8716 52.2947C66.8716 52.64 66.7686 52.9777 66.5756 53.2658C66.3825 53.5539 66.1078 53.7796 65.7857 53.915ZM70.8571 71.8086H67.2857V66.525H70.8571V71.8086ZM70.8571 38.3461H67.2857V33.0626H70.8571V38.3461Z" fill="white"/>
</svg>
