<svg width="106" height="104" viewBox="0 0 106 104" fill="none" xmlns="http://www.w3.org/2000/svg">
<rect opacity="0.7" x="0.349365" y="0.416016" width="105" height="103.557" rx="40" fill="#5EFFE6"/>
<path d="M73.45 38.2699C73.3195 37.8742 73.0654 37.5293 72.7241 37.2846C72.3829 37.04 71.9719 36.908 71.55 36.9076H67V30.0038C67 28.9127 66.1063 28.0312 65 28.0312H41C39.8938 28.0312 39 28.9127 39 30.0038V36.9076H34.45C34.0279 36.907 33.6164 37.0386 33.275 37.2835C32.9335 37.5283 32.6797 37.8737 32.55 38.2699L28 52.0713V75.3717C28 76.4628 28.8938 77.3442 30 77.3442H76C77.1063 77.3442 78 76.4628 78 75.3717V52.0713L73.45 38.2699ZM62.25 59.8381C62.25 60.1093 62.025 60.3313 61.75 60.3313H55V66.9885C55 67.2597 54.775 67.4816 54.5 67.4816H51.5C51.225 67.4816 51 67.2597 51 66.9885V60.3313H44.25C43.975 60.3313 43.75 60.1093 43.75 59.8381V56.8793C43.75 56.6081 43.975 56.3862 44.25 56.3862H51V49.729C51 49.4577 51.225 49.2358 51.5 49.2358H54.5C54.775 49.2358 55 49.4577 55 49.729V56.3862H61.75C62.025 56.3862 62.25 56.6081 62.25 56.8793V59.8381ZM62.5 36.9076H43.5V32.4694H62.5V36.9076Z" fill="white"/>
</svg>
