<svg width="20" height="20" viewBox="0 0 20 20" fill="none" xmlns="http://www.w3.org/2000/svg">
<path d="M3.64223 12.0787V14.6555C3.64223 15.325 4.00574 15.9486 4.58735 16.2695L9.13117 18.773C9.67643 19.0757 10.3307 19.0757 10.876 18.773L15.4198 16.2695C16.0014 15.9486 16.3649 15.325 16.3649 14.6555V12.0787L10.876 15.1049C10.3307 15.4075 9.67643 15.4075 9.13117 15.1049L3.64223 12.0787ZM9.13117 3.22009L1.47029 7.43846C0.843238 7.78693 0.843238 8.70397 1.47029 9.05244L9.13117 13.2708C9.67643 13.5734 10.3307 13.5734 10.876 13.2708L18.1825 9.24502V14.6647C18.1825 15.1691 18.5914 15.5817 19.0912 15.5817C19.5911 15.5817 20 15.1691 20 14.6647V8.7865C20 8.4472 19.8182 8.14458 19.5274 7.97951L10.876 3.22009C10.6075 3.07559 10.3079 3 10.0036 3C9.69929 3 9.39967 3.07559 9.13117 3.22009V3.22009Z" fill="white"/>
</svg>
